<svg id="Layer_1" data-name="Layer 1" xmlns="http://www.w3.org/2000/svg" viewBox="0 0 60 50"><defs><style>.cls-1{fill:#fff;}</style></defs><title>hamburger</title><path class="cls-1" d="M6.4,0H53.6C57.13,0,60,2.39,60,5.33h0c0,2.95-2.87,5.33-6.4,5.33H6.4C2.87,10.67,0,8.28,0,5.33H0C0,2.39,2.87,0,6.4,0Z"/><path class="cls-1" d="M6.4,19.33H53.6c3.53,0,6.4,2.39,6.4,5.33h0C60,27.61,57.13,30,53.6,30H6.4C2.87,30,0,27.61,0,24.67H0C0,21.72,2.87,19.33,6.4,19.33Z"/><path class="cls-1" d="M6.4,39.33H53.6c3.53,0,6.4,2.39,6.4,5.33h0C60,47.61,57.13,50,53.6,50H6.4C2.87,50,0,47.61,0,44.67H0C0,41.72,2.87,39.33,6.4,39.33Z"/></svg>