<svg id="Layer_1" data-name="Layer 1" xmlns="http://www.w3.org/2000/svg" viewBox="0 0 632.83 99.68"><defs><style>.cls-1{fill:#fff;}</style></defs><title>logo</title><path class="cls-1" d="M30.89,99.55a2.72,2.72,0,0,1-2.77-3.73l10-33.42a7.85,7.85,0,0,1,5.35-4.87l33.21-6.64a10.59,10.59,0,0,1,2.05-.18,15.21,15.21,0,0,1,6.11,1.23l95.58,46.5c1.06.52,1.26.85,1.29.91h0a4,4,0,0,1-1.54.2Z" transform="translate(0 -0.32)"/><path class="cls-1" d="M78.76,51.16h0a14.71,14.71,0,0,1,5.91,1.18l95.58,46.5.46.24-.52,0H30.89A2.27,2.27,0,0,1,28.54,96l10-33.42a7.35,7.35,0,0,1,5-4.56L76.8,51.33a10.15,10.15,0,0,1,2-.17m0-.9a11.11,11.11,0,0,0-2.14.19L43.41,57.09a8.25,8.25,0,0,0-5.7,5.18l-10,33.42a3.16,3.16,0,0,0,3.2,4.3H180.2c2.47,0,2.67-.88.45-2L85.07,51.53a15.7,15.7,0,0,0-6.31-1.27Z" transform="translate(0 -0.32)"/><path class="cls-1" d="M80.8,46.41a7.44,7.44,0,0,1-3.5-.79L1.69,4.26c-1.05-.58-1.25-1-1.24-1S.83,2.9,2,2.89L156.22.77c1.15,0,1.47.25,1.49.31s-.14.47-1.2,1.11L84.64,45.47A7.68,7.68,0,0,1,80.8,46.41Z" transform="translate(0 -0.32)"/><path class="cls-1" d="M156.22,1.22a4.66,4.66,0,0,1,.8.06,4.9,4.9,0,0,1-.74.53L84.41,45.08A7.23,7.23,0,0,1,80.8,46a7,7,0,0,1-3.28-.73L1.91,3.87a5.28,5.28,0,0,1-.72-.46A5.28,5.28,0,0,1,2,3.34L156.12,1.22h.11m0-.9h-.12L2,2.44c-2.47,0-2.72,1-.55,2.22L77.08,46a7.9,7.9,0,0,0,3.71.84,8.11,8.11,0,0,0,4.08-1L156.75,2.58c2.08-1.25,1.84-2.26-.52-2.26Z" transform="translate(0 -0.32)"/><path class="cls-1" d="M165.45,67.12c-.92,0-1.33-.43-1.33-1.38V30.2c0-.55.16-1.11,1.33-1.11h21c2.71,0,4.53,1.55,4.53,3.86V43a3.62,3.62,0,0,1-3.15,3.88l-1.88.44,1.88.44c2.12.49,3.15,1.64,3.15,3.5v12c0,2.23-1.95,3.92-4.53,3.92Zm3.23-4.06h17.68v-12c0-1.18-.79-1.85-2.17-1.85H168.68Zm0-17.9h15.51c1.84,0,2.11-1.16,2.11-1.85V33.15H168.68Z" transform="translate(0 -0.32)"/><path class="cls-1" d="M186.44,29.54c2.48,0,4.08,1.34,4.08,3.42V43a3.18,3.18,0,0,1-2.8,3.44l-3.76.88,3.76.88c1.94.45,2.8,1.4,2.8,3.06v12c0,2-1.76,3.47-4.08,3.47h-21c-.58,0-.88-.14-.88-.93V30.2c0-.34,0-.67.88-.67h21M168.23,45.61h16c1.6,0,2.56-.86,2.56-2.3V32.7H168.23v12.9m0,17.9H186.8V51.07c0-1.11-.69-2.3-2.62-2.3h-16V63.5m18.21-34.86h-21c-1.13,0-1.78.49-1.78,1.56V65.73a1.61,1.61,0,0,0,1.78,1.83h21c2.79,0,5-1.83,5-4.37v-12c0-2.1-1.19-3.4-3.5-3.94a4.07,4.07,0,0,0,3.5-4.31V33c0-2.59-2-4.31-5-4.31ZM169.12,44.71V33.6h16.72v9.7c0,1-.59,1.4-1.66,1.4Zm0,17.9V49.67h15.06c1.07,0,1.72.43,1.72,1.4V62.61Z" transform="translate(0 -0.32)"/><path class="cls-1" d="M206.84,67.12a2.19,2.19,0,0,1-2.28-2V56.24c0-2.25,1.73-4.07,4.31-4.52L226.33,49v-5H209.12v2.28c0,1.39-.72,2-2.28,2s-2.28-.61-2.28-2V41.9a2.19,2.19,0,0,1,2.28-2h19.57a4.68,4.68,0,0,1,4.47,4.4V67.12Zm2.28-11.31v7.25h17.21v-10Z" transform="translate(0 -0.32)"/><path class="cls-1" d="M226.41,40.32a4.26,4.26,0,0,1,4,4V66.67H206.84A1.76,1.76,0,0,1,205,65.09V56.24c0-2,1.58-3.66,3.93-4.07L226,49.48l.76-.12V43.48h-18.1v2.73c0,.95-.31,1.58-1.83,1.58S205,47.22,205,46.22V41.9a1.76,1.76,0,0,1,1.83-1.58h19.57M208.67,63.5h18.1v-11l-1,.16L209.43,55.3l-.76.12V63.5m17.74-24.08H206.84a2.64,2.64,0,0,0-2.73,2.48v4.31c0,1.67.89,2.48,2.73,2.48s2.73-.81,2.73-2.48V44.38h16.31v4.21l-17.08,2.7c-2.79.49-4.69,2.48-4.69,5v8.84a2.64,2.64,0,0,0,2.73,2.48h24.49V44.28a5.14,5.14,0,0,0-4.92-4.85ZM209.57,62.61V56.19l16.31-2.59v9Z" transform="translate(0 -0.32)"/><path class="cls-1" d="M248.95,67.12c-1.6,0-2.28-.61-2.28-2s.68-2,2.28-2h6.32V33.15h-4.19c-1.53,0-2.28-.66-2.28-2s.72-2,2.28-2h4.39c2.6,0,4.35,1.55,4.35,3.86v30.1h7c1.6,0,2.28.61,2.28,2s-.68,2-2.28,2Z" transform="translate(0 -0.32)"/><path class="cls-1" d="M255.47,29.54c2.34,0,3.9,1.37,3.9,3.42V63.5h7.42c1.53,0,1.83.58,1.83,1.58s-.3,1.58-1.83,1.58H248.95c-1.53,0-1.83-.58-1.83-1.58s.3-1.58,1.83-1.58h6.77V32.7h-4.63c-1.61,0-1.83-.8-1.83-1.58,0-.95.31-1.58,1.83-1.58h4.39m0-.9h-4.39c-1.78,0-2.73.81-2.73,2.48s.95,2.48,2.73,2.48h3.74v29h-5.87c-1.84,0-2.73.81-2.73,2.48s.89,2.48,2.73,2.48H266.8c1.84,0,2.73-.81,2.73-2.48s-.89-2.48-2.73-2.48h-6.52V33c0-2.53-2-4.31-4.8-4.31Z" transform="translate(0 -0.32)"/><path class="cls-1" d="M287.14,67.12a2.19,2.19,0,0,1-2.28-2V56.24c0-2.25,1.73-4.07,4.31-4.52L306.63,49v-5H289.42v2.28c0,1.39-.72,2-2.28,2s-2.28-.61-2.28-2V41.9a2.19,2.19,0,0,1,2.28-2h19.57a4.68,4.68,0,0,1,4.47,4.4V67.12Zm2.28-11.31v7.25h17.21v-10Z" transform="translate(0 -0.32)"/><path class="cls-1" d="M306.71,40.32a4.26,4.26,0,0,1,4,4V66.67H287.14a1.76,1.76,0,0,1-1.83-1.58V56.24c0-2,1.58-3.66,3.93-4.07l17.08-2.7.76-.12V43.48H289v2.73c0,.95-.31,1.58-1.83,1.58s-1.83-.58-1.83-1.58V41.9a1.76,1.76,0,0,1,1.83-1.58h19.57M289,63.5h18.1v-11l-1,.16L289.73,55.3l-.76.12V63.5m17.74-24.08H287.14a2.64,2.64,0,0,0-2.73,2.48v4.31c0,1.67.89,2.48,2.73,2.48s2.73-.81,2.73-2.48V44.38h16.31v4.21l-17.08,2.7c-2.79.49-4.69,2.48-4.69,5v8.84a2.64,2.64,0,0,0,2.73,2.48h24.49V44.28a5.14,5.14,0,0,0-4.92-4.85ZM289.87,62.61V56.19l16.31-2.59v9Z" transform="translate(0 -0.32)"/><path class="cls-1" d="M349.23,67.12c-1.6,0-2.28-.61-2.28-2V45.46c0-1.13-.66-1.53-1.28-1.53H329.39V65.09c0,1.4-.68,2-2.22,2s-2.28-.61-2.28-2V39.87h20.78a5.94,5.94,0,0,1,5.84,5.59V65.09C351.51,66.47,350.79,67.12,349.23,67.12Z" transform="translate(0 -0.32)"/><path class="cls-1" d="M345.68,40.32a5.55,5.55,0,0,1,5.39,5.14V65.09c0,.95-.31,1.58-1.83,1.58s-1.83-.58-1.83-1.58V45.46a1.74,1.74,0,0,0-1.73-2H328.94v21.6c0,1-.3,1.58-1.77,1.58s-1.83-.58-1.83-1.58V40.32h20.33m0-.9H324.45V65.09c0,1.67.89,2.48,2.73,2.48s2.67-.81,2.67-2.48V44.38h15.83c.53,0,.83.38.83,1.08V65.09c0,1.67.89,2.48,2.73,2.48s2.73-.81,2.73-2.48V45.46a6.41,6.41,0,0,0-6.29-6Z" transform="translate(0 -0.32)"/><path class="cls-1" d="M367.32,67.12a2.19,2.19,0,0,1-2.28-2V41.9a2.19,2.19,0,0,1,2.28-2h22.06a2.22,2.22,0,0,1,2.28,2v4.85c0,1.37-.75,2-2.28,2s-2.28-.65-2.28-2V43.93H369.54V63.06H387.1V59.8c0-1.37.7-2,2.28-2,2,0,2.28,1.13,2.28,2v5.28a2.22,2.22,0,0,1-2.28,2Z" transform="translate(0 -0.32)"/><path class="cls-1" d="M389.38,40.32a1.79,1.79,0,0,1,1.83,1.58v4.85c0,.78-.22,1.58-1.83,1.58s-1.83-.63-1.83-1.58V43.48H369.09v20h18.46V59.8c0-.94.31-1.53,1.83-1.53s1.83.73,1.83,1.53v5.28a1.79,1.79,0,0,1-1.83,1.58H367.32a1.76,1.76,0,0,1-1.83-1.58V41.9a1.76,1.76,0,0,1,1.83-1.58h22.06m0-.9H367.32a2.64,2.64,0,0,0-2.73,2.48V65.09a2.64,2.64,0,0,0,2.73,2.48h22.06a2.68,2.68,0,0,0,2.73-2.48V59.8c0-1.62-.95-2.43-2.73-2.43s-2.73.81-2.73,2.43v2.8H370V44.38h16.66v2.37c0,1.62.89,2.48,2.73,2.48s2.73-.86,2.73-2.48V41.9a2.68,2.68,0,0,0-2.73-2.48Z" transform="translate(0 -0.32)"/><path class="cls-1" d="M407.47,67.12a2.19,2.19,0,0,1-2.28-2V41.9a2.19,2.19,0,0,1,2.28-2h22.06a2.22,2.22,0,0,1,2.28,2V53a2.22,2.22,0,0,1-2.28,2H409.69v8h17.56V59.8c0-1.37.7-2,2.28-2,2,0,2.28,1.13,2.28,2v5.28a2.22,2.22,0,0,1-2.28,2ZM409.69,51h17.56v-7H409.69Z" transform="translate(0 -0.32)"/><path class="cls-1" d="M429.53,40.32a1.79,1.79,0,0,1,1.83,1.58V53a1.79,1.79,0,0,1-1.83,1.58H409.24V63.5H427.7V59.8c0-.94.31-1.53,1.83-1.53s1.83.73,1.83,1.53v5.28a1.79,1.79,0,0,1-1.83,1.58H407.47a1.76,1.76,0,0,1-1.83-1.58V41.9a1.76,1.76,0,0,1,1.83-1.58h22.06M409.24,51.43H427.7V43.48H409.24v7.94m20.29-12H407.47a2.64,2.64,0,0,0-2.73,2.48V65.09a2.64,2.64,0,0,0,2.73,2.48h22.06a2.68,2.68,0,0,0,2.73-2.48V59.8c0-1.62-.95-2.43-2.73-2.43s-2.73.81-2.73,2.43v2.8H410.14V55.49h19.39A2.68,2.68,0,0,0,432.26,53V41.9a2.68,2.68,0,0,0-2.73-2.48ZM410.14,50.53V44.38H426.8v6.15Z" transform="translate(0 -0.32)"/><path class="cls-1" d="M498.86,67.12c-1.6,0-2.28-.61-2.28-2v-11L484.91,31.94a2,2,0,0,1-.19-.87,2.32,2.32,0,0,1,4.32-.81l9.64,18.94,9.77-18.95a2,2,0,0,1,2-1.16,2.22,2.22,0,0,1,2.4,2,1.83,1.83,0,0,1-.24.86l-11.5,22.27V65.09C501.14,66.47,500.42,67.12,498.86,67.12Z" transform="translate(0 -0.32)"/><path class="cls-1" d="M510.48,29.54c.94,0,1.95.61,1.95,1.53a1.41,1.41,0,0,1-.2.67L500.79,53.89l-.1.19v11c0,.95-.31,1.58-1.83,1.58S497,66.09,497,65.09V54l-.1-.2-11.61-22a1.62,1.62,0,0,1-.15-.69,1.74,1.74,0,0,1,1.89-1.53,1.71,1.71,0,0,1,1.57.91l9.25,18.17.8,1.56.8-1.56,9.38-18.19a1.57,1.57,0,0,1,1.62-.9m0-.9a2.47,2.47,0,0,0-2.43,1.4l-9.37,18.17L489.43,30a2.77,2.77,0,0,0-5.16,1,2.53,2.53,0,0,0,.24,1.08L496.13,54.2V65.09c0,1.67.89,2.48,2.73,2.48s2.73-.81,2.73-2.48V54.3L513,32.15a2.27,2.27,0,0,0,.3-1.08,2.68,2.68,0,0,0-2.85-2.43Z" transform="translate(0 -0.32)"/><path class="cls-1" d="M530,67.12c-2.52,0-4.35-1.65-4.35-3.92V43.84a4.4,4.4,0,0,1,4.35-4h17.85c2.64,0,4.41,1.6,4.41,4V63.2c0,2.23-1.9,3.92-4.41,3.92Zm.14-4.06H547.7V43.93H530.14Z" transform="translate(0 -0.32)"/><path class="cls-1" d="M547.85,40.32c2.37,0,4,1.42,4,3.52V63.2c0,2-1.7,3.47-4,3.47H530c-2.3,0-3.9-1.43-3.9-3.47V43.84a4,4,0,0,1,3.9-3.52h17.85M529.69,63.5h18.46v-20H529.69v20m18.15-24.08H530a4.86,4.86,0,0,0-4.8,4.42V63.2c0,2.53,2,4.37,4.8,4.37h17.85a4.56,4.56,0,0,0,4.86-4.37V43.84c0-2.59-2-4.42-4.86-4.42ZM530.59,62.61V44.38h16.66V62.61Z" transform="translate(0 -0.32)"/><path class="cls-1" d="M570.92,78c-1.6,0-2.28-.61-2.28-2s.7-2,2.28-2h15.72A1.23,1.23,0,0,0,588,72.63V67.12H571c-3.45,0-5.42-1.74-5.42-4.78V44.49c0-3.11,1.75-4.62,5.36-4.62h21.61V74c0,2.34-1.73,3.92-4.29,3.92Zm-.8-14.84L588,63.05V43.93H570.11Z" transform="translate(0 -0.32)"/><path class="cls-1" d="M592.08,40.32V74c0,2.07-1.55,3.47-3.85,3.47H570.92c-1.53,0-1.83-.58-1.83-1.58s.31-1.53,1.83-1.53h15.72a1.68,1.68,0,0,0,1.79-1.76v-6H571c-1.86,0-5-.56-5-4.33V44.49c0-1.79.51-4.17,4.91-4.17h21.16M569.66,63.56h.9l17-.05h.9v-20H569.66V63.56M593,39.42H570.92c-3.85,0-5.81,1.73-5.81,5.07V62.34c0,3.34,2.25,5.23,5.87,5.23h16.54v5.07a.79.79,0,0,1-.89.86H570.92c-1.84,0-2.73.81-2.73,2.43s.89,2.48,2.73,2.48h17.32c2.85,0,4.74-1.83,4.74-4.37V39.42ZM570.56,62.66V44.38h17V62.61l-17,.05Z" transform="translate(0 -0.32)"/><path class="cls-1" d="M608.34,67.12a2.19,2.19,0,0,1-2.28-2V56.24c0-2.25,1.73-4.07,4.31-4.52L627.82,49v-5H610.62v2.28c0,1.39-.72,2-2.28,2s-2.28-.61-2.28-2V41.9a2.19,2.19,0,0,1,2.28-2h19.57a4.68,4.68,0,0,1,4.47,4.4V67.12Zm2.28-11.31v7.25h17.21v-10Z" transform="translate(0 -0.32)"/><path class="cls-1" d="M627.91,40.32a4.26,4.26,0,0,1,4,4V66.67H608.34a1.76,1.76,0,0,1-1.83-1.58V56.24c0-2,1.58-3.66,3.93-4.07l17.08-2.7.76-.12V43.48h-18.1v2.73c0,.95-.31,1.58-1.83,1.58s-1.83-.58-1.83-1.58V41.9a1.76,1.76,0,0,1,1.83-1.58h19.57M610.17,63.5h18.1v-11l-1,.16L610.93,55.3l-.76.12V63.5m17.74-24.08H608.34a2.64,2.64,0,0,0-2.73,2.48v4.31c0,1.67.89,2.48,2.73,2.48s2.73-.81,2.73-2.48V44.38h16.31v4.21l-17.08,2.7c-2.79.49-4.69,2.48-4.69,5v8.84a2.64,2.64,0,0,0,2.73,2.48h24.49V44.28a5.14,5.14,0,0,0-4.92-4.85ZM611.07,62.61V56.19l16.31-2.59v9Z" transform="translate(0 -0.32)"/></svg>