<?xml version="1.0" encoding="utf-8"?>
<!-- Generator: Adobe Illustrator 24.2.3, SVG Export Plug-In . SVG Version: 6.00 Build 0)  -->
<svg version="1.1" xmlns="http://www.w3.org/2000/svg" xmlns:xlink="http://www.w3.org/1999/xlink" x="0px" y="0px"
	 viewBox="0 0 632.8 99.7" style="enable-background:new 0 0 632.8 99.7;" xml:space="preserve">
<style type="text/css">
	.st0{display:none;}
	.st1{display:inline;}
	.st2{fill:#FFFFFF;}
	.st3{font-family:'CenturyGothic';}
	.st4{font-size:59.5px;}
	.st5{letter-spacing:5;}
	.st6{letter-spacing:8;}
	.st7{letter-spacing:6;}
	.st8{letter-spacing:7;}
	.st9{letter-spacing:4;}
</style>
<g id="Layer_1" class="st0">
	<path class="st1" d="M30.9,99.2c-1.5,0.1-2.8-1-3-2.5c0-0.4,0-0.9,0.2-1.3l10-33.4c0.9-2.4,2.9-4.2,5.3-4.9l33.2-6.6
		c0.7-0.1,1.4-0.2,2.1-0.2c2.1,0,4.2,0.4,6.1,1.2l95.6,46.5c1.1,0.5,1.3,0.8,1.3,0.9l0,0c-0.5,0.2-1,0.2-1.5,0.2H30.9z"/>
	<path class="st1" d="M78.8,50.8L78.8,50.8c2,0,4,0.4,5.9,1.2l95.6,46.5l0.5,0.2h-0.5H30.9c-1.2,0.1-2.4-0.8-2.5-2
		c0-0.4,0-0.7,0.1-1.1l10-33.4c0.8-2.2,2.7-3.9,5-4.6L76.8,51C77.5,50.9,78.1,50.8,78.8,50.8 M78.8,49.9c-0.7,0-1.4,0.1-2.1,0.2
		l-33.3,6.6c-2.6,0.7-4.8,2.6-5.7,5.2l-10,33.4c-0.6,1.6,0.2,3.5,1.8,4.1c0.4,0.2,0.9,0.2,1.4,0.2h149.3c2.5,0,2.7-0.9,0.4-2
		L85.1,51.2C83.1,50.4,80.9,49.9,78.8,49.9L78.8,49.9z"/>
	<path class="st1" d="M80.8,46.1c-1.2,0-2.4-0.2-3.5-0.8L1.7,3.9c-1-0.6-1.3-1-1.2-1S0.8,2.6,2,2.6l154.2-2.1c1.1,0,1.5,0.3,1.5,0.3
		s-0.1,0.5-1.2,1.1L84.6,45.2C83.5,45.8,82.1,46.1,80.8,46.1z"/>
	<path class="st1" d="M156.2,0.9c0.3,0,0.5,0,0.8,0.1c-0.2,0.2-0.5,0.4-0.7,0.5L84.4,44.8c-1.1,0.6-2.3,0.9-3.6,0.9
		c-1.1,0-2.3-0.2-3.3-0.7L1.9,3.5C1.7,3.4,1.4,3.3,1.2,3.1C1.5,3,1.7,3,2,3l154.1-2.1H156.2 M156.2,0h-0.1L2,2.1
		c-2.5,0-2.7,1-0.5,2.2l75.6,41.3c1.1,0.6,2.4,0.9,3.7,0.8c1.4,0,2.8-0.3,4.1-1l71.9-43.3C158.8,1,158.6,0,156.2,0z"/>
	<path class="st1" d="M165.4,66.8c-0.9,0-1.3-0.4-1.3-1.4V29.9c0-0.5,0.2-1.1,1.3-1.1h21c2.7,0,4.5,1.5,4.5,3.9v10
		c0.2,1.9-1.2,3.6-3.1,3.9l-1.9,0.4l1.9,0.4c2.1,0.5,3.1,1.6,3.1,3.5v12c0,2.2-1.9,3.9-4.5,3.9L165.4,66.8z M168.7,62.7h17.7v-12
		c0-1.2-0.8-1.8-2.2-1.8h-15.5V62.7z M168.7,44.8h15.5c1.8,0,2.1-1.2,2.1-1.8V32.8h-17.6V44.8z"/>
	<path class="st1" d="M186.4,29.2c2.5,0,4.1,1.3,4.1,3.4v10c0.2,1.7-1.1,3.2-2.8,3.4L184,47l3.8,0.9c1.9,0.5,2.8,1.4,2.8,3.1v12
		c0,2-1.8,3.5-4.1,3.5h-21c-0.6,0-0.9-0.1-0.9-0.9V29.9c0-0.3,0-0.7,0.9-0.7L186.4,29.2 M168.2,45.3h16c1.6,0,2.6-0.9,2.6-2.3V32.4
		h-18.6V45.3 M168.2,63.2h18.6V50.8c0-1.1-0.7-2.3-2.6-2.3h-16L168.2,63.2 M186.4,28.3h-21c-1.1,0-1.8,0.5-1.8,1.6v35.5
		c-0.1,0.9,0.5,1.7,1.4,1.8c0.1,0,0.3,0,0.4,0h21c2.8,0,5-1.8,5-4.4v-12c0-2.1-1.2-3.4-3.5-3.9c2.1-0.3,3.6-2.2,3.5-4.3v-9.9
		C191.4,30.1,189.4,28.4,186.4,28.3L186.4,28.3z M169.1,44.4V33.3h16.7V43c0,1-0.6,1.4-1.7,1.4L169.1,44.4z M169.1,62.3V49.3h15.1
		c1.1,0,1.7,0.4,1.7,1.4v11.5H169.1z"/>
	<path class="st1" d="M206.8,66.8c-1.2,0.1-2.2-0.8-2.3-2v-8.9c0-2.3,1.7-4.1,4.3-4.5l17.5-2.7v-5h-17.2V46c0,1.4-0.7,2-2.3,2
		s-2.3-0.6-2.3-2v-4.4c0.1-1.2,1.1-2.1,2.3-2h19.6c2.4,0.1,4.3,2,4.5,4.4v22.8H206.8z M209.1,55.5v7.3h17.2v-10L209.1,55.5z"/>
	<path class="st1" d="M226.4,40c2.2,0.1,3.9,1.8,4,4v22.3h-23.6c-0.9,0-1.7-0.6-1.8-1.6v-8.8c0-2,1.6-3.7,3.9-4.1l17.1-2.7l0.8-0.1
		v-5.9h-18.1v2.7c0,1-0.3,1.6-1.8,1.6s-1.8-0.6-1.8-1.6v-4.3c0.1-0.9,0.9-1.6,1.8-1.6H226.4 M208.7,63.2h18.1v-11l-1,0.2L209.4,55
		l-0.8,0.1V63.2 M226.4,39.1h-19.6c-1.4-0.1-2.6,1-2.7,2.5v4.3c0,1.7,0.9,2.5,2.7,2.5s2.7-0.8,2.7-2.5v-1.8h16.3v4.2L208.8,51
		c-2.8,0.5-4.7,2.5-4.7,5v8.8c0.1,1.4,1.3,2.5,2.7,2.5h24.5V44C231.2,41.3,229.1,39.2,226.4,39.1L226.4,39.1z M209.6,62.3v-6.4
		l16.3-2.6v9L209.6,62.3z"/>
	<path class="st1" d="M248.9,66.8c-1.6,0-2.3-0.6-2.3-2s0.7-2,2.3-2h6.3v-30h-4.2c-1.5,0-2.3-0.7-2.3-2s0.7-2,2.3-2h4.4
		c2.6,0,4.4,1.5,4.4,3.9v30.1h7c1.6,0,2.3,0.6,2.3,2s-0.7,2-2.3,2L248.9,66.8z"/>
	<path class="st1" d="M255.5,29.2c2.3,0,3.9,1.4,3.9,3.4v30.5h7.4c1.5,0,1.8,0.6,1.8,1.6s-0.3,1.6-1.8,1.6h-17.8
		c-1.5,0-1.8-0.6-1.8-1.6s0.3-1.6,1.8-1.6h6.8V32.4h-4.6c-1.6,0-1.8-0.8-1.8-1.6c0-1,0.3-1.6,1.8-1.6H255.5 M255.5,28.3h-4.4
		c-1.8,0-2.7,0.8-2.7,2.5s0.9,2.5,2.7,2.5h3.7v29H249c-1.8,0-2.7,0.8-2.7,2.5s0.9,2.5,2.7,2.5h17.8c1.8,0,2.7-0.8,2.7-2.5
		s-0.9-2.5-2.7-2.5h-6.5V32.7C260.3,30.1,258.3,28.4,255.5,28.3L255.5,28.3z"/>
	<path class="st1" d="M287.1,66.8c-1.2,0.1-2.2-0.8-2.3-2v-8.9c0-2.3,1.7-4.1,4.3-4.5l17.5-2.7v-5h-17.2V46c0,1.4-0.7,2-2.3,2
		s-2.3-0.6-2.3-2v-4.4c0.1-1.2,1.1-2.1,2.3-2h19.6c2.4,0.1,4.3,2,4.5,4.4v22.8H287.1z M289.4,55.5v7.3h17.2v-10L289.4,55.5z"/>
	<path class="st1" d="M306.7,40c2.2,0.1,3.9,1.8,4,4v22.3h-23.6c-0.9,0-1.7-0.7-1.8-1.6v-8.8c0-2,1.6-3.7,3.9-4.1l17.1-2.7l0.8-0.1
		v-5.9H289v2.7c0,1-0.3,1.6-1.8,1.6s-1.8-0.6-1.8-1.6v-4.3c0.1-0.9,0.9-1.6,1.8-1.6H306.7 M289,63.2h18.1v-11l-1,0.2L289.7,55
		l-0.8,0.1L289,63.2 M306.7,39.1h-19.6c-1.4-0.1-2.6,1-2.7,2.5v4.3c0,1.7,0.9,2.5,2.7,2.5s2.7-0.8,2.7-2.5v-1.8h16.3v4.2L289.1,51
		c-2.8,0.5-4.7,2.5-4.7,5v8.8c0.1,1.4,1.3,2.5,2.7,2.5h24.5V44C311.5,41.3,309.4,39.2,306.7,39.1L306.7,39.1z M289.9,62.3v-6.4
		l16.3-2.6v9L289.9,62.3z"/>
	<path class="st1" d="M349.2,66.8c-1.6,0-2.3-0.6-2.3-2V45.1c0-1.1-0.7-1.5-1.3-1.5h-16.3v21.2c0,1.4-0.7,2-2.2,2s-2.3-0.6-2.3-2
		V39.5h20.8c3.1,0,5.7,2.5,5.8,5.6v19.6C351.5,66.2,350.8,66.8,349.2,66.8z"/>
	<path class="st1" d="M345.7,40c2.9,0.1,5.2,2.3,5.4,5.1v19.6c0,0.9-0.3,1.6-1.8,1.6s-1.8-0.6-1.8-1.6V45.1c0.1-1-0.5-1.8-1.5-2
		c-0.1,0-0.2,0-0.3,0h-16.7v21.6c0,1-0.3,1.6-1.8,1.6s-1.8-0.6-1.8-1.6V40H345.7 M345.7,39.1h-21.2v25.7c0,1.7,0.9,2.5,2.7,2.5
		s2.7-0.8,2.7-2.5V44.1h15.8c0.5,0,0.8,0.4,0.8,1.1v19.6c0,1.7,0.9,2.5,2.7,2.5s2.7-0.8,2.7-2.5V45.1
		C351.8,41.8,349,39.2,345.7,39.1L345.7,39.1z"/>
	<path class="st1" d="M367.3,66.8c-1.2,0.1-2.2-0.8-2.3-2V41.6c0.1-1.2,1.1-2.1,2.3-2h22.1c1.2,0,2.2,0.8,2.3,2v4.8
		c0,1.4-0.8,2-2.3,2s-2.3-0.7-2.3-2v-2.8h-17.6v19.1h17.6v-3.3c0-1.4,0.7-2,2.3-2c2,0,2.3,1.1,2.3,2v5.3c-0.1,1.2-1.1,2-2.3,2
		L367.3,66.8z"/>
	<path class="st1" d="M389.4,40c0.9,0,1.7,0.7,1.8,1.6v4.8c0,0.8-0.2,1.6-1.8,1.6s-1.8-0.6-1.8-1.6v-3.3h-18.5v20h18.5v-3.7
		c0-0.9,0.3-1.5,1.8-1.5s1.8,0.7,1.8,1.5v5.3c-0.1,0.9-0.9,1.6-1.8,1.6h-22.1c-0.9,0-1.7-0.7-1.8-1.6V41.6c0.1-0.9,0.9-1.6,1.8-1.6
		H389.4 M389.4,39.1h-22.1c-1.4-0.1-2.6,1-2.7,2.5v23.2c0.1,1.4,1.3,2.5,2.7,2.5h22.1c1.4,0,2.6-1.1,2.7-2.5v-5.3
		c0-1.6-1-2.4-2.7-2.4s-2.7,0.8-2.7,2.4v2.8H370V44.1h16.7v2.4c0,1.6,0.9,2.5,2.7,2.5s2.7-0.9,2.7-2.5v-4.8
		C392,40.2,390.8,39.1,389.4,39.1L389.4,39.1z"/>
	<path class="st1" d="M407.5,66.8c-1.2,0.1-2.2-0.8-2.3-2V41.6c0.1-1.2,1.1-2.1,2.3-2h22.1c1.2,0,2.2,0.8,2.3,2v11.1
		c-0.1,1.2-1.1,2-2.3,2h-19.8v8h17.6v-3.2c0-1.4,0.7-2,2.3-2c2,0,2.3,1.1,2.3,2v5.3c-0.1,1.2-1.1,2-2.3,2L407.5,66.8z M409.7,50.7
		h17.6v-7h-17.6V50.7z"/>
	<path class="st1" d="M429.5,40c0.9,0,1.7,0.7,1.8,1.6v11.1c-0.1,0.9-0.9,1.6-1.8,1.6h-20.3v8.9h18.5v-3.7c0-0.9,0.3-1.5,1.8-1.5
		s1.8,0.7,1.8,1.5v5.3c-0.1,0.9-0.9,1.6-1.8,1.6h-22.1c-0.9,0-1.7-0.7-1.8-1.6V41.6c0.1-0.9,0.9-1.6,1.8-1.6H429.5 M409.2,51.1h18.5
		v-8h-18.5V51.1 M429.5,39.1h-22.1c-1.4-0.1-2.6,1-2.7,2.5v23.2c0.1,1.4,1.3,2.5,2.7,2.5h22.1c1.4,0,2.6-1.1,2.7-2.5v-5.3
		c0-1.6-1-2.4-2.7-2.4s-2.7,0.8-2.7,2.4v2.8h-16.7v-7.1h19.4c1.4,0,2.6-1.1,2.7-2.5V41.6C432.2,40.2,431,39.1,429.5,39.1z
		 M410.1,50.2v-6.1h16.7v6.2L410.1,50.2z"/>
	<path class="st1" d="M498.9,66.8c-1.6,0-2.3-0.6-2.3-2v-11l-11.7-22.2c-0.1-0.3-0.2-0.6-0.2-0.9c0.2-1.3,1.4-2.2,2.6-2
		c0.7,0.1,1.3,0.5,1.7,1.2l9.6,18.9l9.8-19c0.4-0.8,1.2-1.2,2-1.2c1.2-0.1,2.3,0.8,2.4,2c0,0.3-0.1,0.6-0.2,0.9l-11.5,22.3v10.9
		C501.1,66.2,500.4,66.8,498.9,66.8z"/>
	<path class="st1" d="M510.5,29.2c0.9,0,1.9,0.6,1.9,1.5c0,0.2-0.1,0.5-0.2,0.7l-11.4,22.1l-0.1,0.2v11c0,0.9-0.3,1.6-1.8,1.6
		s-1.9-0.6-1.9-1.6V53.7l-0.1-0.2l-11.6-22c-0.1-0.2-0.2-0.5-0.1-0.7c0.1-0.9,0.9-1.6,1.9-1.5c0.7,0,1.3,0.3,1.6,0.9l9.3,18.2
		l0.8,1.6l0.8-1.6l9.4-18.2C509.1,29.5,509.8,29.2,510.5,29.2 M510.5,28.3c-1-0.1-2,0.5-2.4,1.4l-9.4,18.2l-9.2-18.2
		c-0.8-1.3-2.4-1.8-3.8-1.1c-0.8,0.4-1.3,1.2-1.4,2.1c0,0.4,0.1,0.7,0.2,1.1l11.6,22.1v10.9c0,1.7,0.9,2.5,2.7,2.5s2.7-0.8,2.7-2.5
		V54L513,31.8c0.2-0.3,0.3-0.7,0.3-1.1C513.2,29.3,511.9,28.2,510.5,28.3L510.5,28.3z"/>
	<path class="st1" d="M530,66.8c-2.5,0-4.3-1.7-4.3-3.9V43.5c0.2-2.3,2.1-4,4.3-4h17.8c2.6,0,4.4,1.6,4.4,4v19.4
		c0,2.2-1.9,3.9-4.4,3.9H530z M530.1,62.7h17.6V43.6h-17.6V62.7z"/>
	<path class="st1" d="M547.8,40c2.4,0,4,1.4,4,3.5v19.4c0,2-1.7,3.5-4,3.5H530c-2.3,0-3.9-1.4-3.9-3.5V43.5c0.2-2,1.9-3.5,3.9-3.5
		H547.8 M529.7,63.2h18.5v-20h-18.5V63.2 M547.8,39.1H530c-2.5,0-4.6,1.9-4.8,4.4v19.4c0,2.5,2,4.4,4.8,4.4h17.8
		c2.5,0.2,4.7-1.7,4.9-4.2c0,0,0-0.1,0-0.1V43.5C552.7,40.9,550.7,39.1,547.8,39.1L547.8,39.1z M530.6,62.3V44.1h16.7v18.2H530.6z"
		/>
	<path class="st1" d="M570.9,77.7c-1.6,0-2.3-0.6-2.3-2s0.7-2,2.3-2h15.7c0.7,0.1,1.3-0.4,1.4-1.1c0-0.1,0-0.2,0-0.3v-5.5h-17
		c-3.5,0-5.4-1.7-5.4-4.8V44.2c0-3.1,1.8-4.6,5.4-4.6h21.6v34.1c0,2.3-1.7,3.9-4.3,3.9L570.9,77.7z M570.1,62.8l17.9-0.1V43.6h-17.9
		L570.1,62.8z"/>
	<path class="st1" d="M592.1,40v33.7c0,2.1-1.5,3.5-3.8,3.5h-17.3c-1.5,0-1.8-0.6-1.8-1.6s0.3-1.5,1.8-1.5h15.7
		c0.9,0.1,1.7-0.6,1.8-1.6c0-0.1,0-0.1,0-0.2v-6H571c-1.9,0-5-0.6-5-4.3V44.2c0-1.8,0.5-4.2,4.9-4.2H592.1 M569.7,63.2h0.9l17,0h0.9
		v-20h-18.8V63.2 M593,39.1h-22.1c-3.8,0-5.8,1.7-5.8,5.1V62c0,3.3,2.3,5.2,5.9,5.2h16.5v5.1c0,0.4-0.3,0.8-0.7,0.9
		c-0.1,0-0.1,0-0.2,0h-15.7c-1.8,0-2.7,0.8-2.7,2.4s0.9,2.5,2.7,2.5h17.3c2.8,0,4.7-1.8,4.7-4.4L593,39.1L593,39.1z M570.6,62.3
		V44.1h17v18.2L570.6,62.3z"/>
	<path class="st1" d="M608.3,66.8c-1.2,0.1-2.2-0.8-2.3-2v-8.9c0-2.3,1.7-4.1,4.3-4.5l17.5-2.7v-5h-17.2V46c0,1.4-0.7,2-2.3,2
		s-2.3-0.6-2.3-2v-4.4c0.1-1.2,1.1-2.1,2.3-2h19.6c2.4,0.1,4.3,2,4.5,4.4v22.8H608.3z M610.6,55.5v7.3h17.2v-10L610.6,55.5z"/>
	<path class="st1" d="M627.9,40c2.2,0.1,3.9,1.8,4,4v22.3h-23.6c-0.9,0-1.7-0.7-1.8-1.6v-8.8c0-2,1.6-3.7,3.9-4.1l17.1-2.7l0.8-0.1
		v-5.9h-18.1v2.7c0,1-0.3,1.6-1.8,1.6s-1.8-0.6-1.8-1.6v-4.3c0.1-0.9,0.9-1.6,1.8-1.6H627.9 M610.2,63.2h18.1v-11l-1,0.2L610.9,55
		l-0.8,0.1V63.2 M627.9,39.1h-19.6c-1.4-0.1-2.6,1-2.7,2.5v4.3c0,1.7,0.9,2.5,2.7,2.5s2.7-0.8,2.7-2.5v-1.8h16.3v4.2L610.3,51
		c-2.8,0.5-4.7,2.5-4.7,5v8.8c0.1,1.4,1.3,2.5,2.7,2.5h24.5V44C632.7,41.3,630.6,39.2,627.9,39.1L627.9,39.1z M611.1,62.3v-6.4
		l16.3-2.6v9L611.1,62.3z"/>
</g>
<g id="Layer_2">
	<path class="st2" d="M153.2,2.1L80.5,45.5c-1.9,1.1-4.3,1.1-6.1,0L1.7,2.1C0.8,1.6,1.2,0.3,2.2,0.3h150.5
		C153.7,0.3,154,1.6,153.2,2.1z"/>
	<path class="st2" d="M26.8,98.4c-0.2,0.6,0.3,1.3,1,1.3l153.9-0.1c1,0,1.4-1.3,0.5-1.9L79.2,50.2c-1.2-0.5-2.5-0.7-3.8-0.4
		l-32.8,7.2c-2.1,0.5-3.8,2-4.5,4.1L26.8,98.4z"/>
</g>
<g id="text" class="st0">
	<text transform="matrix(1 0 0 1 159.7349 67.2919)" class="st1"><tspan x="0" y="0" class="st3 st4 st5">B</tspan><tspan x="39.7" y="0" class="st3 st4 st6">a</tspan><tspan x="89.2" y="0" class="st3 st4 st7">l</tspan><tspan x="107.8" y="0" class="st3 st4 st8">a</tspan><tspan x="155.7" y="0" class="st3 st4 st5">nce </tspan><tspan x="307.7" y="0" class="st3 st4 st9">Y</tspan><tspan x="347" y="0" class="st3 st4 st5">oga</tspan></text>
</g>
<g id="Layer_4">
	<g>
		<path class="st2" d="M165.1,24.6h8.4c3.4,0,6,0.4,7.8,1.2c1.8,0.8,3.3,2,4.3,3.7c1.1,1.7,1.6,3.5,1.6,5.5c0,1.9-0.5,3.6-1.4,5.2
			c-0.9,1.6-2.3,2.8-4.1,3.8c2.2,0.8,3.9,1.6,5.1,2.7c1.2,1,2.1,2.2,2.8,3.7c0.7,1.4,1,3,1,4.7c0,3.4-1.3,6.3-3.8,8.7
			c-2.5,2.4-5.9,3.6-10.1,3.6h-11.7V24.6z M169.2,28.7v13.7h2.4c3,0,5.2-0.3,6.6-0.8c1.4-0.6,2.5-1.4,3.3-2.6c0.8-1.2,1.2-2.5,1.2-4
			c0-2-0.7-3.5-2.1-4.6c-1.4-1.1-3.5-1.7-6.5-1.7H169.2z M169.2,46.7v16.4h5.3c3.1,0,5.4-0.3,6.9-0.9c1.5-0.6,2.6-1.6,3.5-2.9
			c0.9-1.3,1.3-2.7,1.3-4.2c0-1.9-0.6-3.6-1.9-5c-1.2-1.4-2.9-2.4-5.1-2.9c-1.5-0.3-4-0.5-7.6-0.5H169.2z"/>
		<path class="st2" d="M235.5,35.7v31.6h-4v-5.4c-1.7,2.1-3.6,3.6-5.7,4.7c-2.1,1-4.4,1.6-7,1.6c-4.5,0-8.3-1.6-11.5-4.9
			c-3.2-3.2-4.8-7.2-4.8-11.8c0-4.6,1.6-8.4,4.8-11.7c3.2-3.2,7-4.9,11.5-4.9c2.6,0,4.9,0.6,7,1.7c2.1,1.1,3.9,2.8,5.5,5v-5.8H235.5
			z M219.2,38.8c-2.3,0-4.4,0.6-6.3,1.7c-1.9,1.1-3.4,2.7-4.6,4.7c-1.1,2-1.7,4.1-1.7,6.4c0,2.2,0.6,4.4,1.7,6.4
			c1.1,2,2.7,3.6,4.6,4.7c1.9,1.1,4,1.7,6.2,1.7c2.2,0,4.3-0.6,6.3-1.7s3.5-2.6,4.6-4.6c1.1-1.9,1.6-4.1,1.6-6.5
			c0-3.7-1.2-6.7-3.6-9.2S222.7,38.8,219.2,38.8z"/>
		<path class="st2" d="M252.8,23.5h4.1v43.8h-4.1V23.5z"/>
		<path class="st2" d="M303.5,35.7v31.6h-4v-5.4c-1.7,2.1-3.6,3.6-5.7,4.7c-2.1,1-4.4,1.6-7,1.6c-4.5,0-8.3-1.6-11.5-4.9
			c-3.2-3.2-4.8-7.2-4.8-11.8c0-4.6,1.6-8.4,4.8-11.7c3.2-3.2,7-4.9,11.5-4.9c2.6,0,4.9,0.6,7,1.7c2.1,1.1,3.9,2.8,5.5,5v-5.8H303.5
			z M287.3,38.8c-2.3,0-4.4,0.6-6.3,1.7c-1.9,1.1-3.4,2.7-4.6,4.7c-1.1,2-1.7,4.1-1.7,6.4c0,2.2,0.6,4.4,1.7,6.4
			c1.1,2,2.7,3.6,4.6,4.7c1.9,1.1,4,1.7,6.2,1.7c2.2,0,4.3-0.6,6.3-1.7s3.5-2.6,4.6-4.6c1.1-1.9,1.6-4.1,1.6-6.5
			c0-3.7-1.2-6.7-3.6-9.2S290.8,38.8,287.3,38.8z"/>
		<path class="st2" d="M320,35.7h4.1v5.7c1.6-2.2,3.4-3.8,5.4-4.9c2-1.1,4.1-1.6,6.4-1.6c2.4,0,4.5,0.6,6.3,1.8
			c1.8,1.2,3.2,2.8,4.1,4.9c0.9,2,1.3,5.2,1.3,9.5v16.3h-4.1V52.2c0-3.6-0.2-6.1-0.5-7.3c-0.5-2.1-1.4-3.7-2.7-4.7
			c-1.3-1.1-3.1-1.6-5.2-1.6c-2.5,0-4.7,0.8-6.6,2.4c-1.9,1.6-3.2,3.6-3.8,6c-0.4,1.6-0.6,4.4-0.6,8.6v11.6H320V35.7z"/>
		<path class="st2" d="M392.5,42.2l-3.2,2c-2.8-3.7-6.6-5.5-11.4-5.5c-3.8,0-7,1.2-9.6,3.7c-2.5,2.5-3.8,5.5-3.8,9
			c0,2.3,0.6,4.5,1.8,6.5c1.2,2,2.8,3.6,4.8,4.7s4.3,1.7,6.9,1.7c4.6,0,8.4-1.8,11.4-5.5l3.2,2.1c-1.5,2.3-3.5,4-6.1,5.3
			s-5.4,1.9-8.7,1.9c-5,0-9.1-1.6-12.4-4.8s-4.9-7-4.9-11.6c0-3.1,0.8-5.9,2.3-8.5c1.5-2.6,3.7-4.7,6.3-6.1c2.7-1.5,5.7-2.2,9-2.2
			c2.1,0,4.1,0.3,6.1,1c1.9,0.6,3.6,1.5,5,2.5C390.4,39.4,391.5,40.7,392.5,42.2z"/>
		<path class="st2" d="M432.4,56.8l3.4,1.8c-1.1,2.2-2.4,4-3.9,5.3c-1.5,1.4-3.1,2.4-5,3.1s-3.9,1.1-6.3,1.1
			c-5.2,0-9.2-1.7-12.1-5.1c-2.9-3.4-4.4-7.2-4.4-11.5c0-4,1.2-7.6,3.7-10.7c3.1-4,7.3-6,12.5-6c5.4,0,9.7,2,12.9,6.1
			c2.3,2.9,3.5,6.5,3.5,10.8h-28.4c0.1,3.7,1.3,6.7,3.5,9s5.1,3.5,8.4,3.5c1.6,0,3.2-0.3,4.7-0.8c1.5-0.6,2.8-1.3,3.9-2.2
			C430,60.4,431.2,58.9,432.4,56.8z M432.4,48.3c-0.5-2.2-1.3-3.9-2.4-5.2c-1-1.3-2.4-2.3-4.1-3.1c-1.7-0.8-3.5-1.2-5.4-1.2
			c-3.1,0-5.8,1-8,3c-1.6,1.5-2.9,3.6-3.7,6.5H432.4z"/>
		<path class="st2" d="M469.3,24.6h4.9l10.9,17.6l10.8-17.6h4.9l-13.5,22.3v20.4h-4.2V46.9L469.3,24.6z"/>
		<path class="st2" d="M526.2,34.9c4.9,0,8.9,1.8,12.1,5.3c2.9,3.2,4.4,7,4.4,11.4c0,4.4-1.5,8.3-4.6,11.6c-3.1,3.3-7,5-11.9,5
			c-4.9,0-8.8-1.7-11.9-5c-3.1-3.3-4.6-7.2-4.6-11.6c0-4.4,1.5-8.2,4.4-11.4C517.3,36.6,521.3,34.9,526.2,34.9z M526.2,38.8
			c-3.4,0-6.3,1.2-8.7,3.7c-2.4,2.5-3.6,5.5-3.6,9.1c0,2.3,0.6,4.4,1.7,6.4c1.1,2,2.6,3.5,4.5,4.6s4,1.6,6.2,1.6s4.3-0.5,6.2-1.6
			s3.4-2.6,4.5-4.6s1.7-4.1,1.7-6.4c0-3.5-1.2-6.6-3.7-9.1S529.6,38.8,526.2,38.8z"/>
		<path class="st2" d="M583,35.7h4.1v25.2c0,4.4-0.4,7.7-1.2,9.7c-1.1,2.9-2.9,5.1-5.5,6.7c-2.6,1.6-5.8,2.4-9.5,2.4
			c-2.7,0-5.1-0.4-7.3-1.2c-2.2-0.8-3.9-1.8-5.3-3.1s-2.6-3.2-3.7-5.7h4.4c1.2,2.1,2.8,3.6,4.7,4.6c1.9,1,4.3,1.5,7.1,1.5
			c2.8,0,5.1-0.5,7-1.5s3.3-2.3,4.1-3.9c0.8-1.6,1.2-4.1,1.2-7.6v-1.6c-1.5,1.9-3.4,3.4-5.6,4.5c-2.2,1-4.6,1.6-7,1.6
			c-2.9,0-5.6-0.7-8.2-2.2c-2.6-1.4-4.5-3.4-5.9-5.8c-1.4-2.4-2.1-5.1-2.1-8c0-2.9,0.7-5.7,2.2-8.2c1.5-2.5,3.5-4.5,6-6
			c2.6-1.5,5.3-2.2,8.1-2.2c2.4,0,4.6,0.5,6.6,1.5c2,1,4,2.6,5.9,4.8V35.7z M571,38.8c-2.3,0-4.4,0.6-6.4,1.7s-3.5,2.7-4.6,4.6
			c-1.1,2-1.7,4.1-1.7,6.4c0,3.5,1.2,6.3,3.5,8.6c2.3,2.3,5.3,3.4,9,3.4c3.7,0,6.7-1.1,9-3.4c2.3-2.2,3.4-5.2,3.4-8.9
			c0-2.4-0.5-4.5-1.6-6.4c-1-1.9-2.5-3.3-4.4-4.4C575.3,39.3,573.2,38.8,571,38.8z"/>
		<path class="st2" d="M632.8,35.7v31.6h-4v-5.4c-1.7,2.1-3.6,3.6-5.7,4.7s-4.4,1.6-7,1.6c-4.5,0-8.3-1.6-11.5-4.9
			c-3.2-3.2-4.8-7.2-4.8-11.8c0-4.6,1.6-8.4,4.8-11.7c3.2-3.2,7-4.9,11.5-4.9c2.6,0,4.9,0.6,7,1.7c2.1,1.1,3.9,2.8,5.5,5v-5.8H632.8
			z M616.6,38.8c-2.3,0-4.4,0.6-6.3,1.7c-1.9,1.1-3.4,2.7-4.6,4.7s-1.7,4.1-1.7,6.4c0,2.2,0.6,4.4,1.7,6.4c1.1,2,2.7,3.6,4.6,4.7
			c1.9,1.1,4,1.7,6.2,1.7c2.2,0,4.3-0.6,6.3-1.7s3.5-2.6,4.6-4.6c1.1-1.9,1.6-4.1,1.6-6.5c0-3.7-1.2-6.7-3.6-9.2
			C623.1,40,620.1,38.8,616.6,38.8z"/>
	</g>
</g>
</svg>
